<svg xmlns="http://www.w3.org/2000/svg" xmlns:xlink="http://www.w3.org/1999/xlink">
    <defs>
        <symbol viewBox="0 0 24 24" id="github">
            <title>GitHub</title>
            <path d="M12 .297c-6.63 0-12 5.373-12 12 0 5.303 3.438 9.8 8.205 11.385.6.113.82-.258.82-.577 0-.285-.01-1.04-.015-2.04-3.338.724-4.042-1.61-4.042-1.61C4.422 18.07 3.633 17.7 3.633 17.7c-1.087-.744.084-.729.084-.729 1.205.084 1.838 1.236 1.838 1.236 1.07 1.835 2.809 1.305 3.495.998.108-.776.417-1.305.76-1.605-2.665-.3-5.466-1.332-5.466-5.93 0-1.31.465-2.38 1.235-3.22-.135-.303-.54-1.523.105-3.176 0 0 1.005-.322 3.3 1.23.96-.267 1.98-.399 3-.405 1.02.006 2.04.138 3 .405 2.28-1.552 3.285-1.23 3.285-1.23.645 1.653.24 2.873.12 3.176.765.84 1.23 1.91 1.23 3.22 0 4.61-2.805 5.625-5.475 5.92.42.36.81 1.096.81 2.22 0 1.606-.015 2.896-.015 3.286 0 .315.21.69.825.57C20.565 22.092 24 17.592 24 12.297c0-6.627-5.373-12-12-12"></path>
        </symbol>
        <symbol viewBox="0 0 256 256" id="instagram">
            <g style="stroke: none; stroke-width: 0; stroke-dasharray: none; stroke-linecap: butt; stroke-linejoin: miter; stroke-miterlimit: 10; fill: none; fill-rule: nonzero; opacity: 1;" transform="translate(1.4065934065934016 1.4065934065934016) scale(2.81 2.81)">
                <path d="M 62.263 90 H 27.738 C 12.443 90 0 77.557 0 62.263 V 27.738 C 0 12.443 12.443 0 27.738 0 h 34.525 C 77.557 0 90 12.443 90 27.738 v 34.525 C 90 77.557 77.557 90 62.263 90 z M 27.738 7 C 16.303 7 7 16.303 7 27.738 v 34.525 C 7 73.697 16.303 83 27.738 83 h 34.525 C 73.697 83 83 73.697 83 62.263 V 27.738 C 83 16.303 73.697 7 62.263 7 H 27.738 z" style="stroke: none; stroke-width: 1; stroke-dasharray: none; stroke-linecap: butt; stroke-linejoin: miter; stroke-miterlimit: 10; fill: currentColor; fill-rule: nonzero; opacity: 1;" transform=" matrix(1 0 0 1 0 0) " stroke-linecap="round" />
                <path d="M 45.255 70.47 c -13.904 0 -25.215 -11.312 -25.215 -25.215 S 31.352 20.04 45.255 20.04 s 25.215 11.312 25.215 25.215 S 59.159 70.47 45.255 70.47 z M 45.255 27.04 c -10.044 0 -18.215 8.171 -18.215 18.215 c 0 10.044 8.171 18.215 18.215 18.215 c 10.044 0 18.215 -8.171 18.215 -18.215 C 63.471 35.211 55.3 27.04 45.255 27.04 z" style="stroke: none; stroke-width: 1; stroke-dasharray: none; stroke-linecap: butt; stroke-linejoin: miter; stroke-miterlimit: 10; fill: currentColor; fill-rule: nonzero; opacity: 1;" transform=" matrix(1 0 0 1 0 0) " stroke-linecap="round" />
                <circle cx="70.557" cy="19.936999999999998" r="4.897" style="stroke: none; stroke-width: 1; stroke-dasharray: none; stroke-linecap: butt; stroke-linejoin: miter; stroke-miterlimit: 10; fill: currentColor; fill-rule: nonzero; opacity: 1;" transform="  matrix(1 0 0 1 0 0) " />
            </g>
        </symbol>
        <symbol viewBox="0 0 512.002 512.002" id="twitter">
            <path style="fill:#73A1FB;" d="M500.398,94.784c-8.043,3.567-16.313,6.578-24.763,9.023c10.004-11.314,17.631-24.626,22.287-39.193
	c1.044-3.265-0.038-6.839-2.722-8.975c-2.681-2.137-6.405-2.393-9.356-0.644c-17.945,10.643-37.305,18.292-57.605,22.764
	c-20.449-19.981-48.222-31.353-76.934-31.353c-60.606,0-109.913,49.306-109.913,109.91c0,4.773,0.302,9.52,0.9,14.201
	c-75.206-6.603-145.124-43.568-193.136-102.463c-1.711-2.099-4.347-3.231-7.046-3.014c-2.7,0.211-5.127,1.734-6.491,4.075
	c-9.738,16.709-14.886,35.82-14.886,55.265c0,26.484,9.455,51.611,26.158,71.246c-5.079-1.759-10.007-3.957-14.711-6.568
	c-2.525-1.406-5.607-1.384-8.116,0.054c-2.51,1.439-4.084,4.084-4.151,6.976c-0.012,0.487-0.012,0.974-0.012,1.468
	c0,39.531,21.276,75.122,53.805,94.52c-2.795-0.279-5.587-0.684-8.362-1.214c-2.861-0.547-5.802,0.456-7.731,2.638
	c-1.932,2.18-2.572,5.219-1.681,7.994c12.04,37.591,43.039,65.24,80.514,73.67c-31.082,19.468-66.626,29.665-103.939,29.665
	c-7.786,0-15.616-0.457-23.279-1.364c-3.807-0.453-7.447,1.795-8.744,5.416c-1.297,3.622,0.078,7.66,3.316,9.736
	c47.935,30.735,103.361,46.98,160.284,46.98c111.903,0,181.907-52.769,220.926-97.037c48.657-55.199,76.562-128.261,76.562-200.451
	c0-3.016-0.046-6.061-0.139-9.097c19.197-14.463,35.724-31.967,49.173-52.085c2.043-3.055,1.822-7.094-0.545-9.906
	C507.7,94.204,503.76,93.294,500.398,94.784z" />
        </symbol>
        <symbol viewBox="0 0 24 24" id="info">
            <path fill="currentColor" d="M11 18h2v-2h-2v2zm1-16C6.48 2 2 6.48 2 12s4.48 10 10 10 10-4.48 10-10S17.52 2 12 2zm0 18c-4.41 0-8-3.59-8-8s3.59-8 8-8 8 3.59 8 8-3.59 8-8 8zm0-14c-2.21 0-4 1.79-4 4h2c0-1.1.9-2 2-2s2 .9 2 2c0 2-3 1.75-3 5h2c0-2.25 3-2.5 3-5 0-2.21-1.79-4-4-4z"></path>
        </symbol>
        <symbol viewBox="0 0 24 24" id="share">
            <path fill="currentColor" d="M18 16.08c-.76 0-1.44.3-1.96.77L8.91 12.7c.05-.23.09-.46.09-.7s-.04-.47-.09-.7l7.05-4.11c.54.5 1.25.81 2.04.81 1.66 0 3-1.34 3-3s-1.34-3-3-3-3 1.34-3 3c0 .24.04.47.09.7L8.04 9.81C7.5 9.31 6.79 9 6 9c-1.66 0-3 1.34-3 3s1.34 3 3 3c.79 0 1.5-.31 2.04-.81l7.12 4.16c-.05.21-.08.43-.08.65 0 1.61 1.31 2.92 2.92 2.92s2.92-1.31 2.92-2.92c0-1.61-1.31-2.92-2.92-2.92zM18 4c.55 0 1 .45 1 1s-.45 1-1 1-1-.45-1-1 .45-1 1-1zM6 13c-.55 0-1-.45-1-1s.45-1 1-1 1 .45 1 1-.45 1-1 1zm12 7.02c-.55 0-1-.45-1-1s.45-1 1-1 1 .45 1 1-.45 1-1 1z"></path>
        </symbol>
        <symbol viewBox="0 0 489.075 489.075" id="home">
            <g>
                <path fill="currentColor" d="M482.453,220.775l-115.5-111.2v-88.5c0-11.4-9.4-20.8-20.8-20.8s-20.8,9.4-20.8,20.8v48.5l-66.6-64.1
                    c-7.3-7.3-19.8-7.3-28.1,0l-223.6,215.3c-8.3,8.3-9.4,20.8-1,29.1c8.4,8.3,20.8,9.4,29.1,1l3.1-3v220.4c0,11.4,9.4,20.8,20.8,20.8
                    h372.4c11.4,0,19.8-9.4,20.8-19.8v-219.3l2.1,2c15.2,10.5,26,3.1,29.1-2.1C490.753,241.575,490.753,228.075,482.453,220.775z
                     M281.653,448.575h-72.8v-111.3h72.8V448.575z M410.653,448.575h-88.4v-132.1c0-11.4-9.4-20.8-20.8-20.8h-113.4
                    c-11.4,0-20.8,9.4-20.8,20.8v132.1h-87.4v-203.9h330.8V448.575L410.653,448.575z M83.853,204.175l161.4-155l159.8,155H83.853z" />
            </g>
        </symbol>
    </defs>
</svg>